<?xml version="1.0" standalone="no"?>
<!DOCTYPE svg PUBLIC "-//W3C//DTD SVG 20010904//EN"
 "http://www.w3.org/TR/2001/REC-SVG-20010904/DTD/svg10.dtd">
<svg version="1.0" xmlns="http://www.w3.org/2000/svg"
 width="555.000000pt" height="71.000000pt" viewBox="0 0 555.000000 71.000000"
 preserveAspectRatio="xMidYMid meet">

<g transform="translate(0.000000,71.000000) scale(0.100000,-0.100000)"
fill="#000000" stroke="none">
<path d="M3185 581 c-32 -14 -55 -46 -62 -84 -7 -48 1 -79 32 -109 l25 -25
-30 -6 c-28 -6 -30 -9 -30 -52 0 -60 23 -103 65 -121 92 -38 189 8 196 92 4
55 -1 73 -32 109 -28 32 -29 35 -10 35 49 0 47 92 -4 140 -27 25 -112 38 -150
21z m120 -27 c19 -8 45 -55 45 -84 0 -15 -6 -20 -28 -20 -22 0 -30 7 -39 30
-14 38 -58 43 -69 8 -5 -17 0 -27 26 -47 17 -14 52 -45 77 -69 43 -40 45 -44
40 -84 -8 -59 -43 -88 -105 -88 -60 0 -88 20 -102 71 -13 48 -8 59 30 59 25 0
29 -4 32 -31 6 -60 69 -65 76 -7 3 21 -8 33 -61 71 -70 50 -77 60 -77 115 0
54 31 82 91 82 26 0 55 -3 64 -6z m-45 -84 c0 -5 -2 -10 -4 -10 -3 0 -8 5 -11
10 -3 6 -1 10 4 10 6 0 11 -4 11 -10z m0 -176 c0 -8 -4 -14 -10 -14 -5 0 -10
9 -10 21 0 11 5 17 10 14 6 -3 10 -13 10 -21z"/>
<path d="M3624 567 c-2 -7 -3 -96 -2 -197 l3 -185 34 -3 c65 -6 81 3 81 51 l1
42 22 -45 c21 -42 25 -45 67 -48 32 -2 48 1 56 13 14 19 10 363 -4 377 -5 5
-29 8 -53 6 l-44 -3 -6 -45 -5 -45 -22 48 -21 47 -51 0 c-32 0 -52 -5 -56 -13z
m138 -132 l48 -120 -3 120 -2 120 30 0 30 0 3 -173 2 -173 -37 3 c-36 3 -37 4
-75 97 -21 52 -38 100 -38 107 0 7 -3 15 -7 17 -5 3 -6 -46 -5 -109 l4 -114
-31 0 -31 0 0 176 0 175 32 -3 c32 -3 34 -7 80 -123z"/>
<path d="M4195 558 c-96 -398 -95 -378 -20 -378 48 0 62 11 67 55 5 43 34 46
43 3 11 -48 22 -58 72 -58 31 0 45 5 50 16 5 14 -41 249 -68 350 l-10 34 -64
0 c-59 0 -65 -2 -70 -22z m111 -10 c5 -7 24 -85 45 -173 l36 -160 -29 -3 c-36
-4 -39 -2 -47 40 -6 30 -10 33 -47 36 -41 3 -41 3 -48 -37 -6 -39 -8 -41 -42
-41 -29 0 -34 3 -31 18 3 9 19 78 37 152 41 178 42 180 84 180 19 0 38 -6 42
-12z"/>
<path d="M4257 455 c-3 -22 -9 -55 -13 -72 -6 -31 -5 -33 20 -33 29 0 29 -2 7
110 l-7 35 -7 -40z"/>
<path d="M4636 565 c-9 -25 -7 -358 3 -373 5 -9 25 -12 57 -10 l49 3 3 39 3
40 22 -40 c21 -37 26 -39 74 -42 38 -2 52 1 56 13 4 8 -13 59 -38 112 l-43 96
29 51 c66 112 65 126 -11 126 -46 0 -52 -3 -69 -31 l-19 -32 -4 29 c-3 27 -6
29 -54 32 -40 2 -53 -1 -58 -13z m86 -82 l3 -78 40 75 c36 67 43 75 73 78 17
2 32 -1 32 -7 0 -5 -18 -40 -39 -77 l-39 -67 25 -56 c14 -31 33 -75 44 -98
l18 -43 -39 0 c-22 0 -40 4 -40 9 0 5 -12 34 -26 65 -24 52 -27 56 -40 39 -7
-10 -14 -39 -14 -65 0 -47 -1 -48 -30 -48 l-30 0 0 175 0 175 30 0 29 0 3 -77z"/>
<path d="M5126 564 c-3 -8 -6 -93 -6 -189 0 -135 3 -175 14 -184 9 -8 50 -11
117 -9 l104 3 0 45 0 45 -55 5 c-51 5 -55 7 -55 30 0 23 5 25 50 30 l50 5 0
45 0 45 -53 3 c-44 3 -53 6 -50 20 2 13 17 18 58 22 l55 5 0 45 0 45 -111 3
c-95 2 -113 0 -118 -14z m204 -34 c0 -30 -1 -30 -55 -30 l-55 0 0 -40 0 -40
50 0 c49 0 50 -1 50 -30 0 -29 -1 -30 -50 -30 l-50 0 0 -50 0 -50 55 0 c52 0
55 -1 55 -25 0 -25 -1 -25 -90 -25 l-90 0 0 168 c0 93 3 172 7 175 3 4 44 7
90 7 l83 0 0 -30z"/>
<path d="M326 554 c-12 -31 -7 -359 6 -372 8 -8 48 -12 115 -12 100 0 103 1
109 24 3 13 4 35 2 47 -3 22 -9 24 -60 27 -57 3 -58 4 -58 32 0 29 1 30 50 30
44 0 50 3 56 24 3 13 4 35 2 47 -3 21 -9 24 -55 27 -45 3 -53 6 -53 23 0 16 7
19 55 19 50 0 55 2 61 25 3 14 3 36 0 50 -6 25 -7 25 -115 25 -90 0 -110 -3
-115 -16z m204 -34 l0 -30 -60 0 -60 0 0 -40 0 -40 55 0 c54 0 55 0 55 -30 0
-30 -1 -30 -55 -30 l-55 0 0 -50 0 -50 60 0 c57 0 60 -1 60 -25 0 -25 -1 -25
-90 -25 l-90 0 0 168 c0 93 3 172 7 175 3 4 44 7 90 7 l83 0 0 -30z"/>
<path d="M854 558 c-4 -7 -26 -90 -49 -185 -48 -198 -47 -206 24 -201 46 3 55
12 66 61 7 35 33 35 40 0 11 -49 20 -58 67 -61 71 -5 72 1 27 193 -22 94 -42
178 -45 188 -4 14 -17 17 -64 17 -35 0 -62 -5 -66 -12z m110 -25 c3 -10 19
-81 36 -158 17 -77 33 -148 36 -157 4 -15 -1 -18 -29 -18 -37 0 -47 12 -47 56
0 22 -4 24 -45 24 -41 0 -45 -2 -45 -24 0 -44 -10 -56 -47 -56 -28 0 -33 3
-29 18 3 9 21 84 40 165 20 82 38 153 42 158 3 5 23 9 44 9 28 0 40 -5 44 -17z"/>
<path d="M907 445 c-4 -22 -9 -55 -13 -72 -6 -31 -5 -33 20 -33 27 0 27 1 20
47 -4 26 -10 59 -14 73 -6 23 -7 21 -13 -15z"/>
<path d="M1264 556 c-3 -8 -4 -29 -2 -48 3 -29 7 -34 38 -38 l35 -5 5 -145 5
-145 48 -3 c35 -2 49 1 53 12 3 8 6 75 7 148 l2 133 35 5 c34 5 35 6 35 50 l0
45 -128 3 c-103 2 -128 0 -133 -12z m236 -36 c0 -28 -3 -30 -35 -30 l-35 0 0
-145 0 -145 -35 0 -35 0 0 145 0 145 -35 0 c-32 0 -35 2 -35 30 l0 30 105 0
105 0 0 -30z"/>
<path d="M1754 557 c-2 -7 -3 -96 -2 -197 l3 -185 104 -3 c119 -3 134 3 129
57 l-3 36 -57 3 c-57 3 -58 4 -58 32 0 29 2 30 43 30 48 0 67 13 67 46 0 45
-10 54 -61 54 -42 0 -49 3 -49 20 0 18 7 20 54 20 57 0 66 8 66 54 0 39 -18
46 -127 46 -75 0 -105 -4 -109 -13z m204 -39 c3 -28 3 -28 -57 -28 l-61 0 0
-39 0 -40 53 -3 c48 -3 52 -5 55 -30 3 -28 2 -28 -52 -28 l-56 0 0 -50 0 -50
60 0 c57 0 60 -1 60 -25 0 -25 -1 -25 -90 -25 l-90 0 0 175 0 176 88 -3 c87
-3 87 -3 90 -30z"/>
<path d="M2224 557 c-2 -7 -3 -96 -2 -197 l3 -185 45 -3 c57 -4 70 13 70 90 0
45 3 58 15 58 11 0 15 -12 15 -49 0 -27 4 -61 10 -75 8 -23 15 -26 59 -26 27
0 52 3 54 8 3 4 1 47 -4 97 -11 107 -11 108 -3 163 15 101 -24 132 -164 132
-66 0 -94 -4 -98 -13z m220 -36 c27 -27 29 -100 4 -128 -15 -16 -15 -21 -4
-34 7 -8 16 -47 20 -86 l6 -73 -35 0 -35 0 0 58 c0 70 -7 81 -53 89 l-37 6 0
-77 0 -76 -35 0 -35 0 0 168 c0 93 3 172 8 176 4 5 45 6 91 3 68 -4 87 -9 105
-26z"/>
<path d="M2310 444 l0 -45 36 3 c43 4 60 24 50 61 -6 24 -11 27 -46 27 l-40 0
0 -46z m60 6 c0 -11 -7 -20 -15 -20 -8 0 -15 9 -15 20 0 11 7 20 15 20 8 0 15
-9 15 -20z"/>
</g>
</svg>
